<svg id="bottlepainting" xmlns="http://www.w3.org/2000/svg" width="38.034" height="37.024" viewBox="0 0 38.034 37.024">
  <g id="Group_10437" data-name="Group 10437">
    <path id="Path_1740" data-name="Path 1740" d="M8.928,55.221h-2.6A5.227,5.227,0,0,1,1.1,49.99V43.425A5.234,5.234,0,0,1,6.074,38.2H8.826a5.223,5.223,0,0,1,4.129,2.379.551.551,0,1,0,.9-.631,6.335,6.335,0,0,0-4.244-2.77V35.828a1.078,1.078,0,0,0-1.077-1.079H6.364a1.078,1.078,0,0,0-1.077,1.079v1.349A6.341,6.341,0,0,0,0,43.425V49.99a6.33,6.33,0,0,0,6.325,6.334h2.6a.551.551,0,0,0,0-1.1M6.388,35.852H8.512V37.09H6.388Z" transform="translate(0 -28.362)"/>
    <path id="Path_1741" data-name="Path 1741" d="M18.373,104.514h3.372a.551.551,0,0,0,0-1.1H18.373a2.678,2.678,0,0,0-2.676,2.68v.422a2.678,2.678,0,0,0,2.676,2.68h3.372a.551.551,0,0,0,0-1.1H18.373a1.575,1.575,0,0,1-1.574-1.577v-.422a1.576,1.576,0,0,1,1.574-1.577" transform="translate(-12.816 -84.403)"/>
    <path id="Path_1742" data-name="Path 1742" d="M143.987,60.089v8.832a.773.773,0,0,1-.772.774h-5.322a.551.551,0,0,0,0,1.1h5.322a1.875,1.875,0,0,0,1.873-1.876V60.089a1.875,1.875,0,0,0-1.873-1.876h-7.338a1.871,1.871,0,0,0-1.633.96.548.548,0,0,0,.488.8h.059a.476.476,0,0,0,.412-.261.768.768,0,0,1,.674-.4h7.338a.773.773,0,0,1,.772.773" transform="translate(-109.552 -47.513)"/>
    <path id="Path_1743" data-name="Path 1743" d="M133.877,6.76h-3.339V3.809a1.089,1.089,0,0,0-.69-1.012V1.109A1.108,1.108,0,0,0,128.741,0h-2.154a1.108,1.108,0,0,0-1.107,1.109V2.8a1.089,1.089,0,0,0-.69,1.012V6.76h-3.339a1.828,1.828,0,0,0-1.827,1.829v3.325a.55.55,0,0,0,.549.55h0a.55.55,0,0,0,.549-.55V8.589a.726.726,0,0,1,.725-.727h12.426a.726.726,0,0,1,.725.727V25.4a.726.726,0,0,1-.725.727h-7.866a.551.551,0,0,0,0,1.1h7.866A1.828,1.828,0,0,0,135.7,25.4V8.589a1.828,1.828,0,0,0-1.827-1.829M126.587,1.1l2.16.006V2.721h-2.165Zm2.85,5.657h-3.546V3.824h3.546Z" transform="translate(-97.669)"/>
    <path id="Path_1744" data-name="Path 1744" d="M69.705,53.652h-.147V50.663a1.087,1.087,0,0,0-1.086-1.088H64.9a1.087,1.087,0,0,0-1.086,1.088v2.989h-.147a4.293,4.293,0,0,0-4.29,4.3V74.995a2.49,2.49,0,0,0,2.489,2.492h9.646A2.49,2.49,0,0,0,74,74.995V57.949a4.293,4.293,0,0,0-4.29-4.3m-4.795-2.975h3.546v2.936H64.911Zm7.983,24.317a1.39,1.39,0,0,1-1.387,1.389H61.861a1.39,1.39,0,0,1-1.387-1.389V57.949a3.2,3.2,0,0,1,3.189-3.194h6.043a3.2,3.2,0,0,1,3.189,3.194Z" transform="translate(-48.475 -40.463)"/>
    <path id="Path_1745" data-name="Path 1745" d="M78.223,103.7H70.886a1.877,1.877,0,0,0-1.874,1.877v1.146a1.877,1.877,0,0,0,1.874,1.876h7.338a1.877,1.877,0,0,0,1.873-1.876v-1.146a1.877,1.877,0,0,0-1.873-1.877M79,106.717a.774.774,0,0,1-.772.773H70.886a.774.774,0,0,1-.772-.773v-1.146a.774.774,0,0,1,.772-.774h7.338a.774.774,0,0,1,.772.774Z" transform="translate(-56.346 -84.635)"/>
  </g>
</svg>
