<svg id="bottlepainting" xmlns="http://www.w3.org/2000/svg" width="52.221" height="50.757" viewBox="0 0 52.221 50.757">
  <g id="Group_10437" data-name="Group 10437">
    <path id="Path_1740" data-name="Path 1740" d="M12.258,62.814H8.684a7.172,7.172,0,0,1-7.172-7.172v-9a7.181,7.181,0,0,1,6.828-7.163h3.779a7.174,7.174,0,0,1,5.669,3.261.756.756,0,1,0,1.239-.866,8.7,8.7,0,0,0-5.827-3.8v-1.85a1.479,1.479,0,0,0-1.479-1.479H8.738a1.479,1.479,0,0,0-1.479,1.479v1.85A8.7,8.7,0,0,0,0,46.642v9a8.684,8.684,0,0,0,8.684,8.684h3.575a.756.756,0,0,0,0-1.512M8.771,36.261h2.916v1.7H8.771Z" transform="translate(0 -25.993)"/>
    <path id="Path_1741" data-name="Path 1741" d="M19.37,104.923H24a.756.756,0,0,0,0-1.512H19.37a3.674,3.674,0,0,0-3.673,3.673v.578a3.674,3.674,0,0,0,3.673,3.673H24a.756.756,0,1,0,0-1.512H19.37a2.161,2.161,0,0,1-2.162-2.162v-.578a2.162,2.162,0,0,1,2.162-2.162" transform="translate(-11.742 -77.353)"/>
    <path id="Path_1742" data-name="Path 1742" d="M147.646,60.785V72.892a1.06,1.06,0,0,1-1.06,1.061H139.28a.756.756,0,0,0,0,1.512h7.307a2.572,2.572,0,0,0,2.572-2.572V60.785a2.572,2.572,0,0,0-2.572-2.572H136.511a2.569,2.569,0,0,0-2.241,1.316.751.751,0,0,0,.67,1.1h.081a.653.653,0,0,0,.566-.358,1.054,1.054,0,0,1,.925-.55h10.075a1.06,1.06,0,0,1,1.06,1.06" transform="translate(-100.367 -43.544)"/>
    <path id="Path_1743" data-name="Path 1743" d="M139.193,9.267h-4.584V5.222a1.493,1.493,0,0,0-.947-1.387V1.52A1.521,1.521,0,0,0,132.141,0h-2.957a1.52,1.52,0,0,0-1.52,1.52V3.835a1.493,1.493,0,0,0-.947,1.387V9.267h-4.584a2.508,2.508,0,0,0-2.508,2.508v4.558a.754.754,0,0,0,.754.754h0a.754.754,0,0,0,.754-.754V11.775a1,1,0,0,1,1-1h17.061a1,1,0,0,1,1,1V34.814a1,1,0,0,1-1,1h-10.8a.756.756,0,1,0,0,1.512h10.8a2.508,2.508,0,0,0,2.508-2.508V11.775a2.508,2.508,0,0,0-2.508-2.508M129.184,1.512l2.966.009V3.73h-2.972ZM133.1,9.267h-4.869V5.242H133.1Z" transform="translate(-89.48)"/>
    <path id="Path_1744" data-name="Path 1744" d="M73.56,55.165h-.2v-4.1a1.491,1.491,0,0,0-1.491-1.492h-4.91a1.492,1.492,0,0,0-1.492,1.492v4.1h-.2a5.89,5.89,0,0,0-5.89,5.89V84.423a3.417,3.417,0,0,0,3.417,3.417H76.033a3.417,3.417,0,0,0,3.417-3.417V61.055a5.89,5.89,0,0,0-5.89-5.89m-6.583-4.078h4.869v4.025H66.977ZM77.938,84.423a1.907,1.907,0,0,1-1.9,1.9H62.789a1.907,1.907,0,0,1-1.905-1.9V61.055a4.383,4.383,0,0,1,4.378-4.378h8.3a4.383,4.383,0,0,1,4.378,4.378Z" transform="translate(-44.411 -37.083)"/>
    <path id="Path_1745" data-name="Path 1745" d="M81.659,103.7H71.585a2.576,2.576,0,0,0-2.573,2.573v1.571a2.575,2.575,0,0,0,2.573,2.572H81.659a2.575,2.575,0,0,0,2.572-2.572v-1.571a2.575,2.575,0,0,0-2.572-2.573m1.06,4.143a1.061,1.061,0,0,1-1.06,1.06H71.585a1.061,1.061,0,0,1-1.061-1.06v-1.571a1.062,1.062,0,0,1,1.061-1.061H81.659a1.062,1.062,0,0,1,1.06,1.061Z" transform="translate(-51.622 -77.565)"/>
  </g>
</svg>
