<svg id="cap" xmlns="http://www.w3.org/2000/svg" width="44.812" height="39.835" viewBox="0 0 44.812 39.835">
  <path id="Union_7" data-name="Union 7" d="M17.2,39.835a1.892,1.892,0,0,1-1.889-1.89V30.74c-2.787-.11-3.071-.23-3.071-.868v-11.8c0-.7.332-.776,3.944-.9,2.162-.075,5.037-.116,8.092-.116s5.929.041,8.092.116c3.612.124,3.944.2,3.944.9v11.8c0,.666-.363.76-3.071.868v7.206a1.892,1.892,0,0,1-1.89,1.89Zm-.645-1.89a.645.645,0,0,0,.645.645h14.15A.646.646,0,0,0,32,37.946V30.784c-2.108.066-4.871.1-7.72.1-2.885,0-5.6-.037-7.719-.1Zm-3.071-19.38V29.376c1.171.123,4.852.267,10.79.267,3.134,0,6.166-.045,8.32-.124,1.384-.052,2.1-.106,2.471-.145V18.565c-1.17-.123-4.851-.267-10.791-.267S14.657,18.442,13.487,18.565ZM1.4,33.525a1.4,1.4,0,0,1-1.4-1.4V28.04C0,27.462.115,27.2.465,27A.976.976,0,0,1,0,26.223c0-.008,0-.014,0-.022V9.386c0-.8.961-1.267,3.316-1.619a48.632,48.632,0,0,1,6.817-.422,48.637,48.637,0,0,1,6.817.422c2.355.351,3.316.82,3.316,1.619h0v6.062a.622.622,0,1,1-1.245,0v-4.9A12.3,12.3,0,0,1,16.95,11a48.629,48.629,0,0,1-6.817.422A48.623,48.623,0,0,1,3.316,11a12.3,12.3,0,0,1-2.071-.452V26.023c.019.011.035.021.063.035a5.545,5.545,0,0,0,1.217.358h0a32.735,32.735,0,0,0,4.852.519c.882.04,1.81.062,2.756.062a.622.622,0,0,1,0,1.245,42.154,42.154,0,0,1-7.862-.607l-.106-.024a.605.605,0,0,1-.088.049c-.291.129-.514.215-.686.282.856.368,3.789.9,8.742.9a.623.623,0,0,1,0,1.245,48.7,48.7,0,0,1-6.817-.422,12.291,12.291,0,0,1-2.071-.453v2.916a.156.156,0,0,0,.154.158H13.041a.622.622,0,1,1,0,1.245ZM1.663,9.386a32.813,32.813,0,0,0,8.47.8,32.816,32.816,0,0,0,8.471-.8,32.819,32.819,0,0,0-8.471-.8A32.816,32.816,0,0,0,1.663,9.386Zm35.669,9.388a.623.623,0,0,1,0-1.245h2.654l.01-2.116H25.711v.758a.622.622,0,0,1-1.245,0v-.758h-2.2A1.37,1.37,0,0,1,20.9,14.045V1.369A1.37,1.37,0,0,1,22.266,0H43.443a1.37,1.37,0,0,1,1.369,1.369V14.045a1.37,1.37,0,0,1-1.369,1.368h-2.2v2.1a1.261,1.261,0,0,1-1.257,1.262Zm3.911-4.606h2.2a.124.124,0,0,0,.124-.123V1.369a.124.124,0,0,0-.124-.124H22.266a.124.124,0,0,0-.124.124V14.045a.124.124,0,0,0,.124.123H41.242Z"/>
</svg>
