<svg id="catalogue" xmlns="http://www.w3.org/2000/svg" width="33.933" height="36.835" viewBox="0 0 33.933 36.835">
  <g id="Group_10640" data-name="Group 10640">
    <path id="Path_1991" data-name="Path 1991" d="M31.312,0H12.793A2.627,2.627,0,0,0,10.17,2.623v5.2H2.623A2.626,2.626,0,0,0,0,10.445V34.214a2.626,2.626,0,0,0,2.623,2.621H23.089a2.626,2.626,0,0,0,2.623-2.621V26.8h5.6a2.624,2.624,0,0,0,2.621-2.621V2.623A2.626,2.626,0,0,0,31.312,0M11.357,2.623a1.376,1.376,0,0,1,.073-.366l9.909,5.567H11.357ZM24.525,34.214a1.438,1.438,0,0,1-1.436,1.436H2.623a1.438,1.438,0,0,1-1.436-1.436V10.445A1.437,1.437,0,0,1,2.623,9.011H23.089a1.437,1.437,0,0,1,1.436,1.435Zm8.223-10.033a1.438,1.438,0,0,1-1.436,1.436h-5.6V10.445a2.616,2.616,0,0,0-1.5-2.357L24.2,8.075,12.191,1.327a1.416,1.416,0,0,1,.6-.14H31.312a1.438,1.438,0,0,1,1.436,1.436Z"/>
    <path id="Path_1992" data-name="Path 1992" d="M8.877,8.03H3.593A1.589,1.589,0,0,0,2.007,9.618V21.605a1.589,1.589,0,0,0,1.586,1.588H8.877a1.589,1.589,0,0,0,1.586-1.588V9.618A1.589,1.589,0,0,0,8.877,8.03M9.2,21.605a.324.324,0,0,1-.324.324H3.593a.324.324,0,0,1-.324-.324V9.618a.323.323,0,0,1,.324-.324H8.877a.323.323,0,0,1,.324.324Z" transform="translate(1.652 6.608)"/>
    <path id="Path_1993" data-name="Path 1993" d="M14.329,8.03H9.043A1.589,1.589,0,0,0,7.457,9.618v3.7A1.589,1.589,0,0,0,9.043,14.9h5.286a1.589,1.589,0,0,0,1.586-1.588v-3.7A1.589,1.589,0,0,0,14.329,8.03m.324,5.286a.325.325,0,0,1-.324.324H9.043a.325.325,0,0,1-.324-.324v-3.7a.324.324,0,0,1,.324-.324h5.286a.324.324,0,0,1,.324.324Z" transform="translate(6.136 6.608)"/>
    <path id="Path_1994" data-name="Path 1994" d="M14.329,12.577H9.043a1.589,1.589,0,0,0-1.586,1.588v3.7a1.589,1.589,0,0,0,1.586,1.588h5.286a1.589,1.589,0,0,0,1.586-1.588v-3.7a1.589,1.589,0,0,0-1.586-1.588m.324,5.286a.325.325,0,0,1-.324.324H9.043a.325.325,0,0,1-.324-.324v-3.7a.325.325,0,0,1,.324-.324h5.286a.325.325,0,0,1,.324.324Z" transform="translate(6.136 10.349)"/>
  </g>
</svg>
