<svg id="mşnşset" xmlns="http://www.w3.org/2000/svg" width="29.431" height="40.104" viewBox="0 0 29.431 40.104">
  <path id="Union_10" data-name="Union 10" d="M11.72,40.1a3.8,3.8,0,0,1-3.8-3.8V26.252a3.8,3.8,0,0,1,3.8-3.8h1.655V20.794a1.421,1.421,0,0,1,1.42-1.42h4.459a1.421,1.421,0,0,1,1.419,1.42v1.661h1.655a3.8,3.8,0,0,1,3.8,3.8V36.307a3.8,3.8,0,0,1-3.8,3.8Zm-2.6-13.852V36.307a2.6,2.6,0,0,0,2.6,2.6H22.328a2.6,2.6,0,0,0,2.6-2.6V26.252a2.6,2.6,0,0,0-2.6-2.6H11.72A2.6,2.6,0,0,0,9.123,26.252Zm5.452-5.459v1.64h4.9v-1.64a.22.22,0,0,0-.22-.22H14.795A.221.221,0,0,0,14.574,20.794ZM3.322,37A3.323,3.323,0,0,1,.013,33.382L1.666,14.835a2.015,2.015,0,0,1,2.014-1.842h.07V8.286A1.828,1.828,0,0,1,5.576,6.461H7.131A1.828,1.828,0,0,1,8.956,8.286v4.707h.155a2.019,2.019,0,0,1,2.01,1.813l.557,5.409a.6.6,0,1,1-1.193.123L9.928,14.93a.82.82,0,0,0-.817-.738H3.681a.82.82,0,0,0-.82.75L1.207,33.488A2.125,2.125,0,0,0,3.322,35.8h3.2a.6.6,0,1,1,0,1.2ZM4.95,8.286V12.9l2.807,0V8.286a.627.627,0,0,0-.626-.626H5.576A.627.627,0,0,0,4.95,8.286ZM26.835,34.309a.6.6,0,1,1,0-1.2h1.4V6.027H24.307V19.569a.6.6,0,0,1-1.2,0V5.84a1.015,1.015,0,0,1,1.016-1.012h.1V2.051a2.051,2.051,0,1,1,4.1,0V4.828h.1A1.013,1.013,0,0,1,29.431,5.84V33.3a1.013,1.013,0,0,1-1.012,1.012ZM25.419,2.051V4.828h1.7V2.051a.852.852,0,1,0-1.7,0Z" transform="translate(0)"/>
</svg>
