<svg id="car" xmlns="http://www.w3.org/2000/svg" width="22.383" height="48.144" viewBox="0 0 22.383 48.144">
  <path id="Path_1774" data-name="Path 1774" d="M828.306,34.3h-.375v-.843a1.406,1.406,0,0,0-1.4-1.4h-2.677a1.405,1.405,0,0,0-1.4,1.4V34.3h-.375a2.525,2.525,0,0,0-.366.03.55.55,0,0,0,.017-.132,2.527,2.527,0,0,0-2.353-2.517V28.764a.633.633,0,0,0-.633-.632h-.262v-.654h.262a.633.633,0,0,0,.633-.632V25.224a.633.633,0,0,0-.633-.632h-1.678V24.5c2.306-.784,3.669-2.979,3.669-5.966,0-1.864-2.041-6.768-3.962-10.434-.089-.17-.18-.341-.272-.513a1.738,1.738,0,0,0-.006-2.129c1.542-2.275,3-3.91,3.868-3.91a.558.558,0,1,0,0-1.116c-1.3,0-3.067,1.853-4.81,4.392a1.762,1.762,0,0,0-.461-.068,1.7,1.7,0,0,0-.205.021C813.268,2.19,811.47,0,810,0a.558.558,0,1,0,0,1.116c.689,0,2.066,1.3,3.856,4.142a1.751,1.751,0,0,0-.1,2.425c-2.464,4.256-4.5,9.129-4.5,10.854,0,2.919,1.466,5.164,3.855,5.967v.089h-1.678a.633.633,0,0,0-.632.632v1.621a.633.633,0,0,0,.632.632h.263v.654h-.263a.633.633,0,0,0-.632.632V31.68a2.527,2.527,0,0,0-2.353,2.517V42.99a2.528,2.528,0,0,0,2.526,2.525h6.434a.558.558,0,0,0,0-1.116h-6.434a1.411,1.411,0,0,1-1.41-1.409V34.2a1.411,1.411,0,0,1,1.41-1.409H819.2a1.411,1.411,0,0,1,1.409,1.409.554.554,0,0,0,.214.436,2.525,2.525,0,0,0-1.275,2.191v8.793a2.529,2.529,0,0,0,2.525,2.526h6.236a2.528,2.528,0,0,0,2.525-2.526V36.824a2.528,2.528,0,0,0-2.525-2.525m-12.363-9.707h-1.715v-.654h1.715Zm-5.571-6.056c0-1.75,2.049-6.316,4.361-10.274a1.771,1.771,0,0,0,.352.035,1.74,1.74,0,0,0,.481-.074c.071.133.14.259.212.4,2.114,4.037,3.835,8.486,3.835,9.917,0,2.353-.928,4.052-2.571,4.777a.632.632,0,0,0-.615-.491h-2.683a.633.633,0,0,0-.615.491,4.92,4.92,0,0,1-2.756-4.778m1.545,7.172h6.337v.654h-6.337Zm.9,1.77h4.547v.654h-4.547Zm-.9,4.194V29.247h6.337v2.424Zm11.645,1.784a.288.288,0,0,1,.288-.288h2.677a.288.288,0,0,1,.288.288V34.3h-3.253Zm6.154,12.162a1.411,1.411,0,0,1-1.409,1.41H822.07a1.411,1.411,0,0,1-1.409-1.41V36.824a1.411,1.411,0,0,1,1.409-1.409h6.236a1.411,1.411,0,0,1,1.409,1.409Z" transform="translate(-808.448 0.001)"/>
</svg>
