<svg id="collar" xmlns="http://www.w3.org/2000/svg" width="32.279" height="44.727" viewBox="0 0 32.279 44.727">
  <path id="Union_11" data-name="Union 11" d="M6.018,43.3V39.194a1.709,1.709,0,0,1-1.008-1.56V33.8C1.717,33.581.032,33.024,0,32.146l0-.021V20.615c.013-.507.524-.879,1.6-1.169V14.4a.155.155,0,0,1,0-.047v-.107a.434.434,0,0,1,.275-.4c1-.86,4.507-.926,5.562-.926s4.567.067,5.563.926a.435.435,0,0,1,.275.4v.109a.089.089,0,0,1,0,.023l0,5.065c1.086.291,1.6.666,1.6,1.176l0,4.609a.436.436,0,1,1-.872,0V21.57c-1.824.8-6.08.827-6.569.827S2.7,22.374.872,21.57V32.075c.237.282,2.428.939,6.574.939.933,0,1.839-.035,2.691-.1a.431.431,0,0,1,.318.1.438.438,0,0,1-.247.77c-.109.009-.22.016-.33.023v3.83a1.708,1.708,0,0,1-1.008,1.56V43.3a1.426,1.426,0,1,1-2.851,0Zm.872,0A.553.553,0,1,0,8,43.3V39.348H6.891ZM5.883,37.634a.838.838,0,0,0,.379.7l.53.141H8.1l.53-.141a.838.838,0,0,0,.379-.7V33.889H5.883ZM.933,20.639c.459.331,2.685.886,6.514.886s6.05-.555,6.508-.886a3.086,3.086,0,0,0-.911-.355c-.939.9-4.513.966-5.6.966s-4.663-.07-5.6-.966A3.08,3.08,0,0,0,.933,20.639ZM2.479,19.7c.265.2,1.789.677,4.968.677s4.7-.475,4.963-.677V15.25a17.456,17.456,0,0,1-4.965.592,17.446,17.446,0,0,1-4.965-.593Zm.15-5.319a14.22,14.22,0,0,0,4.815.589,14.222,14.222,0,0,0,4.815-.589,14.229,14.229,0,0,0-4.815-.588A14.226,14.226,0,0,0,2.629,14.381Zm8.414,24.767v-.016L11.049,27.6a.074.074,0,0,1-.007-.036c0-1.445,5.7-1.557,7.443-1.557s7.444.112,7.444,1.557a.239.239,0,0,1-.005.045.082.082,0,0,1,.005.033l0,11.52c-.027,1.648-6.2,1.733-7.437,1.733S11.089,40.81,11.043,39.148Zm.871-.066c.238.282,2.43.939,6.574.939,4.168,0,6.345-.659,6.569-.942V28.4c-1.7.663-5.442.716-6.571.716s-4.873-.052-6.571-.716Zm.173-11.519a21.277,21.277,0,0,0,6.4.685,21.28,21.28,0,0,0,6.4-.685,21.3,21.3,0,0,0-6.4-.685A21.3,21.3,0,0,0,12.088,27.563Zm4.329,6.71a2.069,2.069,0,1,1,2.068,2.069A2.071,2.071,0,0,1,16.417,34.273Zm.872,0a1.2,1.2,0,1,0,1.2-1.2A1.2,1.2,0,0,0,17.29,34.273ZM26.4,29.368a.436.436,0,0,1-.137-.6.841.841,0,0,0,.129-.448V24.573H23.274v1.052a.436.436,0,1,1-.872,0V24.486c-3.3-.221-4.984-.78-5.008-1.66V11.318c0-.517.51-.895,1.605-1.188V1.314c0-.532.563-.834,1.948-1.055A25.834,25.834,0,0,1,24.836,0a25.845,25.845,0,0,1,3.89.259c1.385.221,1.95.523,1.95,1.042l0,8.829c1.092.293,1.6.67,1.606,1.184v0l-.005,11.52c-.011.865-1.7,1.426-5,1.647v3.833a1.714,1.714,0,0,1-.263.913.438.438,0,0,1-.6.137Zm-8.14-6.608c.238.282,2.43.939,6.574.939,4.168,0,6.345-.659,6.569-.941v-10.5c-1.824.8-6.079.827-6.569.827s-4.748-.024-6.574-.827Zm.06-11.436c.459.331,2.686.886,6.514.886s6.05-.555,6.508-.886a2.83,2.83,0,0,0-.8-.326c-.231.3-.783.509-1.818.676a25.761,25.761,0,0,1-3.887.26,25.824,25.824,0,0,1-3.892-.26c-1.036-.167-1.588-.371-1.819-.676A2.839,2.839,0,0,0,18.325,11.323ZM19.87,10.5a15.3,15.3,0,0,0,4.968.56A15.276,15.276,0,0,0,29.8,10.5v-8.4a7.591,7.591,0,0,1-1.075.237,25.893,25.893,0,0,1-3.89.259,25.882,25.882,0,0,1-3.89-.259,7.565,7.565,0,0,1-1.076-.237Zm.35-9.2a18.839,18.839,0,0,0,4.615.428A18.838,18.838,0,0,0,29.451,1.3,18.756,18.756,0,0,0,24.836.872,18.758,18.758,0,0,0,20.221,1.3ZM5.748,18.062a1.561,1.561,0,1,1,1.561,1.561A1.563,1.563,0,0,1,5.748,18.062Zm.873,0a.689.689,0,1,0,.688-.689A.689.689,0,0,0,6.62,18.062ZM23.14,6.09A1.561,1.561,0,1,1,24.7,7.651,1.563,1.563,0,0,1,23.14,6.09Zm.872,0A.689.689,0,1,0,24.7,5.4.69.69,0,0,0,24.012,6.09Z"/>
</svg>
