<?xml version="1.0" encoding="UTF-8"?>
<svg id="catalogue" xmlns="http://www.w3.org/2000/svg" version="1.1" viewBox="0 0 38.7 42">
  <!-- Generator: Adobe Illustrator 29.6.1, SVG Export Plug-In . SVG Version: 2.1.1 Build 9)  -->
  <path d="M35.7,0H14.6c-1.6,0-3,1.3-3,3v5.9H3c-1.7,0-3,1.3-3,3h0v27.1c0,1.7,1.3,3,3,3h23.3c1.7,0,3-1.3,3-3v-8.5h6.4c1.7,0,3-1.3,3-3V3c0-1.7-1.3-3-3-3ZM12.9,3c0-.1,0-.3,0-.4l11.3,6.3h-11.4V3ZM28,39c0,.9-.7,1.6-1.6,1.6H3c-.9,0-1.6-.7-1.6-1.6V11.9c0-.9.7-1.6,1.6-1.6h23.3c.9,0,1.6.7,1.6,1.6v27.1ZM37.3,27.6c0,.9-.7,1.6-1.6,1.6h-6.4V11.9c0-1.2-.7-2.2-1.7-2.7h0S13.9,1.5,13.9,1.5c.2-.1.4-.2.7-.2h21.1c.9,0,1.6.7,1.6,1.6v24.6Z"/>
  <path d="M18,21.5c-2.3-5.6-3-5.6-3.5-5.6s-1.2,0-3.7,5.5c-5.2.9-5.4,1.5-5.5,2-.2.5-.4,1.1,3.7,4.4-1.1,5.2-.4,5.6,0,5.8.2,0,.3.1.5.1.9,0,3.2-1.4,4.9-2.6,4.1,2.7,4.8,2.7,5,2.7h0c.3,0,.5-.1.6-.2.4-.3.7-.6-.2-5.7,4.4-3.8,4.3-4.1,4-4.7-.2-.4-.3-.7-5.9-1.8ZM10.1,31.9c0-.9.3-2.6.6-4.2,0-.3,0-.6-.3-.8-1.3-1.1-2.6-2.2-3.2-2.9.9-.3,2.6-.7,4.3-1,.3,0,.5-.2.6-.5.8-1.9,1.8-3.7,2.3-4.5.5.9,1.4,2.7,2.2,4.6.1.3.3.4.6.5,1.8.3,3.5.7,4.5,1-.7.7-2.1,1.9-3.4,3-.2.2-.3.5-.3.8.3,1.5.5,3.1.6,4-.9-.5-2.4-1.4-3.8-2.4-.3-.2-.7-.2-.9,0-1.5,1-3.1,2-4,2.4Z"/>
</svg>