<svg id="oil" xmlns="http://www.w3.org/2000/svg" width="35.898" height="44.496" viewBox="0 0 35.898 44.496">
  <path id="Union_5" data-name="Union 5" d="M2.911,44.5A2.914,2.914,0,0,1,0,41.586v-15.9a2.914,2.914,0,0,1,2.911-2.91H4.65l.01-5.637-.005-.151c0-.5.43-.7,1.942-.829l.075-.328a9.545,9.545,0,0,0,.237-2.08l.009-2.589a2.6,2.6,0,0,1,5.205,0l.065,2.488a9.543,9.543,0,0,0,.391,2.461l.012.043c1.416.118,1.9.292,1.972.712a.5.5,0,0,1,.017.121v5.788H16.32a.5.5,0,0,1,0,1.01H14.357a.794.794,0,0,1-.418.223l-.1.02a23.061,23.061,0,0,1-3.526.379c-.461.014-.93.014-1.391,0A23.083,23.083,0,0,1,5.4,24.024l-.1-.02a.786.786,0,0,1-.228-.081.788.788,0,0,1-.079-.059.776.776,0,0,1-.11-.083H2.911a1.9,1.9,0,0,0-1.9,1.9v15.9a1.9,1.9,0,0,0,1.9,1.9H16.32a1.886,1.886,0,0,0,.883-.219,1.186,1.186,0,0,1-.716-1.5l1.733-4.978V27.9a.5.5,0,1,1,1.01,0v5.986l2.242-6.44A23.084,23.084,0,0,1,18.705,26.1l-.092-.053a.787.787,0,0,1-.384-.824.686.686,0,0,1,.029-.113l.806-2.275,0-.04.039-.08a.627.627,0,0,1,.659-.414.522.522,0,0,0,.495-.343l1.323-3.906.025-.088c.171-.491.683-.48,1.782-.2l.207-.332a7.65,7.65,0,0,0,.727-1.512l.7-1.981a2.207,2.207,0,0,1,4.168,1.453l-.613,1.921a7.627,7.627,0,0,0-.353,1.966l-.008.164c.926.415,1.352.708,1.32,1.1a.5.5,0,0,1-.026.159l-1.4,4.011a.539.539,0,0,0,.181.579.674.674,0,0,1,.25.443.5.5,0,0,1-.02.24l-.839,2.409a.793.793,0,0,1-.743.529.8.8,0,0,1-.119-.009l-.1-.015a23.094,23.094,0,0,1-3-.667L19.23,41.1v.489a2.913,2.913,0,0,1-2.91,2.91ZM17.44,42.1a.176.176,0,0,0,.332.115l.448-1.286v0a.5.5,0,0,1,.11-.31l4.413-12.676c-.111-.038-.221-.076-.331-.115Zm1.836-16.829a22.138,22.138,0,0,0,3.009,1.418c.416.159.841.307,1.262.439a22.047,22.047,0,0,0,3.239.757l.543-1.561A22.953,22.953,0,0,1,23.5,25.232,22.771,22.771,0,0,1,19.827,23.7Zm1.933-2.981a1.5,1.5,0,0,1-.535.728,30.911,30.911,0,0,0,3.157,1.264,30.653,30.653,0,0,0,3.292.977,1.482,1.482,0,0,1,.031-.869l1.167-3.352c-.169-.033-.343-.075-.517-.116-.692-.168-1.593-.441-2.536-.769a20.225,20.225,0,0,1-2.927-1.2ZM5.66,23.046c.15.028.3.05.452.074.117.019.234.041.351.058.172.025.345.044.518.065.1.012.2.027.307.038.2.021.4.037.6.053.076.006.151.015.227.019q.416.028.832.041c.221.007.443.01.665.01s.444,0,.665-.01q.414-.012.828-.041c.112-.008.224-.02.338-.029.164-.014.328-.026.492-.043.111-.012.221-.028.332-.042.165-.02.33-.039.495-.062.106-.015.212-.035.318-.052.163-.026.326-.051.489-.08V17.7a22.876,22.876,0,0,1-3.955.23,22.675,22.675,0,0,1-3.947-.234ZM26.578,13.59a1.19,1.19,0,0,0-.609.684l-.7,1.982a8.652,8.652,0,0,1-.824,1.712l-.068.109,2.839.989a8.631,8.631,0,0,1,.39-2.058l.617-1.933a1.2,1.2,0,0,0-1.647-1.484ZM7.928,11.16,7.919,13.75a10.582,10.582,0,0,1-.262,2.3l-.068.3H11.6a10.546,10.546,0,0,1-.418-2.674l-.066-2.5a1.593,1.593,0,1,0-3.186-.013ZM25.365,38.814a2.9,2.9,0,0,1-2.894-2.894V33.634a.5.5,0,1,1,1.01,0V35.92A1.886,1.886,0,0,0,25.365,37.8H33a1.887,1.887,0,0,0,1.884-1.885V17.111a1.884,1.884,0,0,0-1.163-1.738.8.8,0,0,1-.218.075l-.1.019c-.528.1-1.063.179-1.594.24a.463.463,0,0,1-.058,0A.505.505,0,0,1,31.7,14.7c.48-.055.965-.127,1.443-.214V9.14a22.879,22.879,0,0,1-3.955.23,22.651,22.651,0,0,1-3.947-.234l-.006,3.831-1.01,0,.007-4.4,0-.133c0-.506.431-.7,1.947-.83l.074-.328a9.544,9.544,0,0,0,.237-2.081L26.492,2.6a2.6,2.6,0,0,1,5.206,0l.065,2.488a9.542,9.542,0,0,0,.391,2.461l.013.043c1.409.118,1.893.291,1.966.709a.488.488,0,0,1,.017.124v6.026A2.9,2.9,0,0,1,35.9,17.111V35.92A2.9,2.9,0,0,1,33,38.814ZM27.5,2.6l-.009,2.591a10.567,10.567,0,0,1-.262,2.3l-.068.3h4.008a10.549,10.549,0,0,1-.418-2.675l-.066-2.5A1.593,1.593,0,1,0,27.5,2.6Z"/>
</svg>
