<svg id="parfume" xmlns="http://www.w3.org/2000/svg" width="40.729" height="44.851" viewBox="0 0 40.729 44.851">
  <path id="Union_9" data-name="Union 9" d="M20.412,44.851a2.9,2.9,0,0,1-2.892-2.891V30.973a2.9,2.9,0,0,1,2.892-2.892H22.5v-.961a1.792,1.792,0,0,1,1.128-1.661V24.041A1.794,1.794,0,0,1,25.42,22.25h.971a1.794,1.794,0,0,1,1.792,1.792v1.418a1.792,1.792,0,0,1,1.128,1.661v.961H31.4a2.9,2.9,0,0,1,2.892,2.892V41.959A2.9,2.9,0,0,1,31.4,44.851ZM18.844,30.973V41.959a1.57,1.57,0,0,0,1.569,1.569H31.4a1.571,1.571,0,0,0,1.569-1.569V30.973A1.571,1.571,0,0,0,31.4,29.4H20.412A1.571,1.571,0,0,0,18.844,30.973Zm4.979-3.853v.961h4.166v-.961a.47.47,0,0,0-.47-.469H24.292A.47.47,0,0,0,23.823,27.121Zm1.128-3.079v1.287h1.91V24.041a.47.47,0,0,0-.469-.469H25.42A.469.469,0,0,0,24.95,24.041ZM5.07,41.386A5.076,5.076,0,0,1,0,36.316V19.564a5.076,5.076,0,0,1,5.07-5.071H6.344V13.289A1.791,1.791,0,0,1,8.081,11.5V8.548A1.794,1.794,0,0,1,9.872,6.756h2.717a1.794,1.794,0,0,1,1.792,1.792V11.5a1.791,1.791,0,0,1,1.737,1.786v1.205h1.273a5.077,5.077,0,0,1,5.071,5.071v5.694a.661.661,0,0,1-1.323,0V19.564a3.752,3.752,0,0,0-3.748-3.747H5.07a3.752,3.752,0,0,0-3.747,3.747V36.316A3.752,3.752,0,0,0,5.07,40.063H16.044a.661.661,0,1,1,0,1.323Zm2.6-28.1v1.205H14.8V13.289a.47.47,0,0,0-.47-.469H8.136A.47.47,0,0,0,7.667,13.289ZM9.4,8.548V11.5h3.655V8.548a.469.469,0,0,0-.469-.469H9.872A.47.47,0,0,0,9.4,8.548ZM35.141,36.569a.662.662,0,0,1,.578-.736c2.58-.31,3.519-.836,3.687-1.032V13.823a6.938,6.938,0,0,0-5.82-6.853,11.425,11.425,0,0,0-1.6-.122c-.136,0-.269,0-.4,0a6.921,6.921,0,0,0-6.64,6.937v6.7a.661.661,0,1,1-1.323,0v-6.7A8.327,8.327,0,0,1,28.5,6.228V5.176a1.788,1.788,0,0,1,1.239-1.7V1.792A1.794,1.794,0,0,1,31.533,0h1.291a1.794,1.794,0,0,1,1.792,1.792V3.48a1.788,1.788,0,0,1,1.239,1.7v1.1a8.317,8.317,0,0,1,4.874,7.549V34.862c0,1.13-1.632,1.9-4.851,2.285a.709.709,0,0,1-.08,0A.662.662,0,0,1,35.141,36.569ZM29.824,5.176v.347h4.709V5.176a.47.47,0,0,0-.469-.469H30.293A.47.47,0,0,0,29.824,5.176Zm1.239-3.384V3.384h2.231V1.792a.47.47,0,0,0-.47-.47H31.533A.47.47,0,0,0,31.063,1.792Z"/>
</svg>
