<svg id="room" xmlns="http://www.w3.org/2000/svg" width="33.901" height="45.6" viewBox="0 0 33.901 45.6">
  <path id="Union_4" data-name="Union 4" d="M9.881,44.375V34.921c0-.376,0-.885,3.759-1.126V32.019c0-.282,0-.617,1.664-.74l-2.877-8.815a.44.44,0,0,1-.09.011.469.469,0,0,1-.268-.084,1.666,1.666,0,0,0-.952-.272A2.612,2.612,0,0,1,8.58,20.43c-.417.032-.936.051-1.595.051s-1.177-.019-1.595-.051a2.612,2.612,0,0,1-2.538,1.688,1.549,1.549,0,0,0-1.151.443c-.733.768-.69,2.472-.657,3.717.006.255.013.5.012.714C1.056,31.468,1,36.011.939,40.4l0,.189a25.126,25.126,0,0,0,6.049.5c.461,0,.91-.006,1.344-.016a.467.467,0,0,1,.023.933c-.441.01-.9.016-1.367.016C0,42.022,0,41.1,0,40.8v-.006l.005-.4c.058-4.391.118-8.931.118-13.4,0-.21-.006-.443-.012-.689-.036-1.408-.086-3.337.916-4.385a2.463,2.463,0,0,1,1.806-.732A1.687,1.687,0,0,0,4.426,20.3c-.661-.16-.667-.4-.667-.6V16.9c0-.281,0-.617,1.665-.739L1.445,3.963a.466.466,0,1,1,.887-.29l3.589,11L4.2.523A.466.466,0,1,1,5.13.41L6.91,15.08,8.689.41a.466.466,0,1,1,.926.112L7.81,15.406,11.639,3.673a.466.466,0,1,1,.887.29L8.546,16.157c1.66.122,1.665.458,1.665.739v2.9a.467.467,0,0,1-.466.467.475.475,0,0,1-.048-.01c-.046.014-.1.028-.152.041a1.687,1.687,0,0,0,1.593.889,2.864,2.864,0,0,1,.928.169l-.74-2.268a.466.466,0,1,1,.887-.289l3.589,11L14.084,15.646a.466.466,0,1,1,.926-.113L16.79,30.2l1.78-14.668a.466.466,0,1,1,.926.113L17.69,30.53,21.518,18.8a.466.466,0,1,1,.887.289L18.426,31.28c1.66.123,1.665.458,1.665.74V33.8c3.758.241,3.759.75,3.759,1.126v9.453c0,.3,0,1.225-6.985,1.225S9.881,44.678,9.881,44.375Zm1.875,0a37.459,37.459,0,0,0,5.11.292,37.462,37.462,0,0,0,5.11-.292,37.521,37.521,0,0,0-5.11-.291A37.518,37.518,0,0,0,11.755,44.375Zm11.162-.743V35.664a24.246,24.246,0,0,1-6.052.482,24.248,24.248,0,0,1-6.052-.482v7.967a24.253,24.253,0,0,1,6.052-.482A24.251,24.251,0,0,1,22.917,43.632ZM11.761,34.922c.5.074,1.159.142,1.949.194a.491.491,0,0,1-.07-.3v-.086C12.824,34.785,12.21,34.854,11.761,34.922Zm8.33,0a.466.466,0,0,1-.044.193c.778-.052,1.43-.119,1.922-.192-.448-.068-1.062-.137-1.878-.192Zm-5.518-.4a13.724,13.724,0,0,0,2.293.149,13.726,13.726,0,0,0,2.293-.149v-.24a.444.444,0,0,1,0-.074c0-.007,0-.014,0-.022V32.675a11.189,11.189,0,0,1-1.493.12.465.465,0,0,1-.075.012.483.483,0,0,1-.051-.008c-.166,0-.343.006-.531.007h-.142l-.25,0-.037,0c-.005,0-.009,0-.014,0-.129,0-.255,0-.373-.005a.452.452,0,0,1-.051.008.463.463,0,0,1-.075-.012,11.178,11.178,0,0,1-1.493-.12ZM4.692,19.4c.1.02.239.04.407.06h.012a17.359,17.359,0,0,0,1.874.088,17.361,17.361,0,0,0,1.874-.088h.012c.168-.019.3-.039.407-.06V17.551a11.3,11.3,0,0,1-1.493.12.461.461,0,0,1-.075.012.5.5,0,0,1-.051-.008c-.165,0-.343.006-.531.007H6.985l-.249,0-.037,0-.014,0c-.128,0-.255,0-.372-.005a.5.5,0,0,1-.051.008.461.461,0,0,1-.075-.012,11.306,11.306,0,0,1-1.493-.12ZM25.837,37.66a.467.467,0,1,1,0-.933h6.109A1.023,1.023,0,0,0,32.968,35.7V26.09a1.023,1.023,0,0,0-1.022-1.022H30.031a.347.347,0,0,1-.266,0H22.331a1.023,1.023,0,0,0-1.022,1.022V30.9a.466.466,0,1,1-.933,0V26.09a1.957,1.957,0,0,1,1.955-1.955h1.582V21.726c0-.281,0-.617,1.664-.739L21.6,8.793a.466.466,0,0,1,.887-.29l3.589,11L24.357,5.352a.466.466,0,1,1,.926-.112l1.78,14.668L28.843,5.24a.466.466,0,1,1,.926.112L27.963,20.237,31.792,8.5a.466.466,0,1,1,.887.29L28.7,20.986c1.66.122,1.665.458,1.665.739v2.409h1.582A1.957,1.957,0,0,1,33.9,26.09V35.7a1.957,1.957,0,0,1-1.955,1.955Zm-.991-13.525h4.586V22.381a11.3,11.3,0,0,1-1.493.12.2.2,0,0,1-.127,0c-.166,0-.343.006-.531.007h-.142l-.25,0-.037,0-.015,0-.373-.005a.458.458,0,0,1-.051.008.463.463,0,0,1-.075-.012,11.3,11.3,0,0,1-1.493-.12Z" transform="translate(0 0)"/>
</svg>
