<svg id="spray" xmlns="http://www.w3.org/2000/svg" width="45.504" height="43.756" viewBox="0 0 45.504 43.756">
  <path id="Union_12" data-name="Union 12" d="M6.716,42.156V37.58a1.913,1.913,0,0,1-1.125-1.746v-4.27C1.918,31.317.038,30.694,0,29.711l0-.026L0,16.841c.013-.569.584-.986,1.79-1.31V9.908a.207.207,0,0,1,0-.054V9.738A.492.492,0,0,1,2.1,9.283c1.115-.96,5.033-1.035,6.211-1.035s5.1.075,6.211,1.035a.493.493,0,0,1,.311.455v.121a.12.12,0,0,1,0,.026l0,5.647c1.212.326,1.781.746,1.789,1.319l0,5.143a.494.494,0,1,1-.988,0V17.919c-2.043.893-6.778.92-7.324.92s-5.284-.027-7.328-.92V29.628c.269.314,2.711,1.043,7.328,1.043,1.042,0,2.053-.038,3-.114a.494.494,0,0,1,.415.813.494.494,0,0,1-.337.171c-.109.009-.22.016-.332.024l-.03,0v4.267A1.914,1.914,0,0,1,9.912,37.58v4.577a1.6,1.6,0,1,1-3.2,0Zm.988,0a.61.61,0,1,0,1.22,0v-4.4H7.7ZM6.579,35.834a.927.927,0,0,0,.42.775l.589.156H9.042l.589-.156a.928.928,0,0,0,.42-.775V31.662H6.579ZM1.061,16.869c.525.369,3,.982,7.256.982s6.725-.613,7.251-.982a3.66,3.66,0,0,0-1-.389c-1.055,1-5.038,1.077-6.248,1.077s-5.2-.079-6.253-1.077A3.657,3.657,0,0,0,1.061,16.869ZM2.78,15.818c.3.225,2,.752,5.536.752s5.23-.527,5.531-.752V10.865a19.545,19.545,0,0,1-5.534.657,19.533,19.533,0,0,1-5.534-.658Zm.178-5.933a16.006,16.006,0,0,0,5.356.65,16.01,16.01,0,0,0,5.356-.65,16.034,16.034,0,0,0-5.356-.649A16.03,16.03,0,0,0,2.958,9.885Zm9.365,27.64v-.02l.008-12.871c-.006,0-.008-.021-.008-.037,0-1.619,6.364-1.745,8.314-1.745s8.314.126,8.314,1.745a.276.276,0,0,1-.005.049.106.106,0,0,1,.005.037l0,12.855c-.03,1.846-6.924,1.941-8.306,1.941S12.378,39.385,12.323,37.525Zm.987-.077c.271.315,2.713,1.043,7.329,1.043,4.643,0,7.068-.731,7.323-1.045v-11.9c-1.9.738-6.068.8-7.326.8s-5.424-.058-7.326-.8Zm.2-12.852a23.979,23.979,0,0,0,7.122.757,23.98,23.98,0,0,0,7.122-.757,23.959,23.959,0,0,0-7.122-.757A23.961,23.961,0,0,0,13.514,24.6ZM44.77,39.2,29.783,32.56a.523.523,0,0,1,.423-.956l14.987,6.636a.523.523,0,1,1-.424.956ZM22.743,30.651a2.316,2.316,0,1,1,2.315,2.315A2.318,2.318,0,0,1,22.743,30.651Zm.987,0a1.328,1.328,0,1,0,1.328-1.328A1.329,1.329,0,0,0,23.73,30.651Zm5.744.233a.522.522,0,0,1,.479-.563L39,29.6a.523.523,0,0,1,.082,1.043l-9.046.719-.041,0A.525.525,0,0,1,29.475,30.885Zm.151-.971a.524.524,0,0,1,0-.739l11.59-11.589a.522.522,0,0,1,.739.739L30.365,29.914a.523.523,0,0,1-.739,0Zm1.042-8.545L16.142,14.585a.523.523,0,0,1,.442-.948L31.11,20.421a.523.523,0,1,1-.442.947ZM10.05,13.691A1.749,1.749,0,1,1,11.8,15.441,1.751,1.751,0,0,1,10.05,13.691Zm.987,0a.761.761,0,1,0,.762-.762A.762.762,0,0,0,11.038,13.691Zm4.828-.76a.522.522,0,0,1,.491-.552l8.86-.527a.5.5,0,0,1,.376.125.525.525,0,0,1-.314.919l-8.892.528A.523.523,0,0,1,15.865,12.931Zm.17-.939a.523.523,0,0,1,.015-.739L27.612.145A.5.5,0,0,1,27.984,0,.522.522,0,0,1,28.5.533a.516.516,0,0,1-.16.367L16.774,12.006a.522.522,0,0,1-.739-.015Z" transform="translate(0 0)"/>
</svg>
